:SAMPLES-PER-SECOND 30
:FULLY-SPECIFIED
:DEGREES
245
root  -10.4327 23.7493 0.338939 -164.364 -56.7047 12.68
RightUpLeg  -49.182 42.1147 -166.344
RightLeg  96.895 12.7056 75.2682
RightFoot  -2.03443 3.82206 -21.8674
RightToes  -1.16417e-010 0 -3.6325e-017
Spine  173.916 62.8149 -6.77924
Spine1  45.1239 27.2168 -19.4375
HEad  18.023 21.4271 -15.2003
LeftShoulder1  0.95249 -1.12684 -13.599
LeftArm  -33.2442 -45.686 -19.772
LeftForeArm  5.17807 -5.63777 2.46957
LeftHand  -0.0140526 6.08646 2.6571
RightShoulder  0.246309 -2.385 15.6542
RightArm  -12.7127 15.0627 56.9844
RightForeArm  178.462 60.0145 163.565
RightHand  -0.0465631 0.0337077 -1.01028
LeftUpLeg  104.57 31.6015 -11.2249
LeftLeg  81.6072 0.666465 8.31752
LeftFoot  -30.7208 -0.347335 -3.11076
LeftToes  1.47335e-010 -1.29615e-010 3.08757e-011
246
root  -9.47015 23.4027 0.160846 -160.417 -55.1729 25.5072
RightUpLeg  78.9684 65.3823 -28.7815
RightLeg  80.7417 1.68691 16.7631
RightFoot  -40.4125 -0.0761931 4.33865
RightToes  -1.16417e-010 0 -3.6325e-017
Spine  141.216 83.2263 -37.0417
Spine1  29.7837 42.32 -17.4297
HEad  20.5356 22.1893 -15.2012
LeftShoulder1  0.956068 -1.25932 -13.0512
LeftArm  -33.176 -45.5965 -20.357
LeftForeArm  4.59377 -5.34826 2.68606
LeftHand  -0.0176522 5.94665 2.5273
RightShoulder  0.189046 -2.64211 15.7175
RightArm  -13.1451 14.7594 56.1669
RightForeArm  178.067 59.5496 163.823
RightHand  -0.0634912 -0.0956331 -1.38351
LeftUpLeg  85.2005 32.3053 -15.111
LeftLeg  83.353 0.49023 9.18896
LeftFoot  -31.2468 -0.548122 -4.19842
LeftToes  1.47335e-010 -1.29615e-010 3.08757e-011
247
root  -9.48881 23.4998 0.153218 -160.213 -55.0694 24.3086
RightUpLeg  83.4786 71.8024 -25.3832
RightLeg  81.525 2.94692 22.2895
RightFoot  -37.0267 0.20283 2.00025
RightToes  -1.16417e-010 0 -3.6325e-017
Spine  129.195 84.0313 -49.9139
Spine1  29.5707 43.4156 -17.8412
HEad  18.8205 22.98 -14.1646
LeftShoulder1  0.97555 -1.1901 -13.8678
LeftArm  -33.3502 -45.8379 -18.9793
LeftForeArm  4.39072 -4.82098 2.48041
LeftHand  -0.0160236 6.25331 2.07527
RightShoulder  0.246129 -2.38625 15.6867
RightArm  -13.3469 14.1649 55.7651
RightForeArm  177.737 59.2706 163.965
RightHand  -0.0964849 0.013284 -2.09368
LeftUpLeg  86.2416 32.4603 -15.3757
LeftLeg  82.8334 0.591728 9.40214
LeftFoot  -31.0856 -0.520616 -4.06694
LeftToes  1.47335e-010 -1.29615e-010 3.08757e-011
248
root  -9.4659 23.6457 0.0960842 -161.82 -55.5732 25.526
RightUpLeg  84.762 71.5474 -23.8059
RightLeg  81.0896 3.12356 22.2542
RightFoot  -37.0662 0.122685 1.64739
RightToes  -1.16417e-010 0 -3.6325e-017
Spine  156.48 80.1011 -21.7387
Spine1  32.5861 39.2627 -16.6991
HEad  19.6732 22.3145 -14.0987
LeftShoulder1  1.00515 -1.79344 -11.8154
LeftArm  -33.7629 -46.2491 -20.1969
LeftForeArm  3.8052 -3.87053 3.23366
LeftHand  -0.0158339 6.33473 1.98432
RightShoulder  0.0847617 -3.11066 16.0661
RightArm  -13.8566 14.5386 55.4546
RightForeArm  178.214 58.9261 164.215
RightHand  -0.083596 -0.140686 -1.82811
LeftUpLeg  87.5227 32.2121 -14.3555
LeftLeg  81.8442 0.759037 9.42227
LeftFoot  -30.9338 -0.520172 -4.09107
LeftToes  1.47335e-010 -1.29615e-010 3.08757e-011
249
root  -9.46944 23.8126 0.0188709 -163.363 -55.4278 26.9073
RightUpLeg  85.2117 71.8482 -23.1532
RightLeg  80.6324 3.33716 22.4179
RightFoot  -37.2996 0.118798 1.6219
RightToes  -1.16417e-010 0 -3.6325e-017
Spine  160.216 78.6462 -16.983
Spine1  34.0165 37.5935 -16.2714
HEad  18.2205 22.2728 -13.6085
LeftShoulder1  1.01604 -2.00161 -11.27
LeftArm  -33.86 -46.4238 -19.9387
LeftForeArm  3.41679 -3.39861 3.28734
LeftHand  -0.00799426 7.07897 1.93348
RightShoulder  0.0457105 -3.28383 16.3753
RightArm  -13.8528 14.5891 55.2252
RightForeArm  178.852 58.7641 164.366
RightHand  -0.0335162 -0.211309 -0.741983
LeftUpLeg  88.4821 32.4159 -13.6002
LeftLeg  80.7068 0.93922 9.33741
LeftFoot  -30.6547 -0.494592 -3.9902
LeftToes  1.47335e-010 -1.29615e-010 3.08757e-011
250
root  -9.31555 23.7782 -0.103772 -162.84 -54.9603 26.4363
RightUpLeg  84.4905 71.683 -23.901
RightLeg  80.8694 3.19668 22.1238
RightFoot  -37.5837 0.172334 1.84254
RightToes  -1.16417e-010 0 -3.6325e-017
Spine  146.343 79.3833 -31.2004
Spine1  33.8488 38.6137 -15.291
HEad  18.2473 20.9703 -13.8993
LeftShoulder1  1.05863 -2.39393 -10.6991
LeftArm  -34.1894 -46.5082 -19.8995
LeftForeArm  3.25928 -3.05661 3.55779
LeftHand  -0.0065263 7.33899 1.84291
RightShoulder  0.0121559 -3.42418 16.1277
RightArm  -14.0442 14.6622 55.0846
RightForeArm  178.586 58.7047 164.378
RightHand  -0.0389993 0.309329 -0.824397
LeftUpLeg  87.776 32.536 -14.2808
LeftLeg  80.5871 0.96887 9.41825
LeftFoot  -30.4636 -0.4454 -3.73348
LeftToes  1.47335e-010 -1.29615e-010 3.08757e-011
251
root  -9.05227 23.6708 -0.199358 -158.445 -54.2287 23.9202
RightUpLeg  77.8526 70.7432 -31.115
RightLeg  81.1727 3.01495 21.7242
RightFoot  -37.5762 0.210344 2.00569
RightToes  -1.16417e-010 0 -3.6325e-017
Spine  82.4214 87.2621 -97.7672
Spine1  28.8263 47.7685 -15.874
HEad  18.0577 20.1239 -14.5147
LeftShoulder1  1.07217 -2.40587 -10.9119
LeftArm  -34.0487 -45.8613 -19.0526
LeftForeArm  2.71223 -2.92857 3.33912
LeftHand  -0.00358001 7.30943 2.0199
RightShoulder  0.134876 -2.88131 15.6374
RightArm  -13.619 14.4128 55.4522
RightForeArm  178.244 58.8902 164.239
RightHand  -0.0715937 0.388109 -1.50064
LeftUpLeg  83.9079 32.4275 -17.5276
LeftLeg  81.2647 0.920863 9.94178
LeftFoot  -30.7296 -0.445261 -3.68983
LeftToes  1.47335e-010 -1.29615e-010 3.08757e-011
252
root  -8.88503 23.695 -0.353277 -158.051 -53.97 22.7041
RightUpLeg  79.2703 70.4518 -30.4262
RightLeg  81.0285 3.00187 21.2107
RightFoot  -37.4231 0.169908 1.83891
RightToes  -1.16417e-010 0 -3.6325e-017
Spine  109.903 87.5181 -71.2549
Spine1  30.0803 46.2617 -14.7086
HEad  17.4585 17.8488 -14.7153
LeftShoulder1  1.1432 -2.85951 -10.7303
LeftArm  -34.722 -46.9606 -18.1381
LeftForeArm  2.35433 -1.85399 3.54582
LeftHand  -0.00656707 7.44709 1.81861
RightShoulder  0.0365699 -3.31978 15.8262
RightArm  -13.5179 14.7149 55.3477
RightForeArm  178.096 58.7271 164.323
RightHand  -0.0849956 -0.07659 -1.85864
LeftUpLeg  84.2753 32.1539 -17.9422
LeftLeg  80.8545 0.946751 9.5756
LeftFoot  -30.3785 -0.438668 -3.70513
LeftToes  1.47335e-010 -1.29615e-010 3.08757e-011
253
root  -8.71287 23.7384 -0.507821 -158.051 -53.3142 22.677
RightUpLeg  78.5645 70.4362 -31.1031
RightLeg  81.0559 2.92645 20.7562
RightFoot  -37.4111 0.133746 1.68295
RightToes  -1.16417e-010 0 -3.6325e-017
Spine  83.7537 88.9911 -98.3788
Spine1  28.4065 46.5267 -14.4493
HEad  17.1829 16.0597 -14.6314
LeftShoulder1  1.14201 -3.19012 -9.70272
LeftArm  -34.7319 -45.8062 -18.4496
LeftForeArm  2.54288 -2.15989 3.78898
LeftHand  -0.0109557 7.91732 1.36215
RightShoulder  0.101461 -3.02919 15.6751
RightArm  -12.9084 14.7404 55.6467
RightForeArm  177.863 59.1408 164.056
RightHand  -0.0767366 0.135757 -1.63602
LeftUpLeg  84.1426 32.1489 -17.955
LeftLeg  80.175 1.01133 9.23569
LeftFoot  -30.0338 -0.350092 -3.22745
LeftToes  1.47335e-010 -1.29615e-010 3.08757e-011
254
root  -8.73702 24.0416 -0.692644 -160.027 -52.8718 24.2663
RightUpLeg  79.145 70.8702 -30.621
RightLeg  80.2633 3.17103 20.3638
RightFoot  -37.2885 -0.0203118 1.01825
RightToes  -1.16417e-010 0 -3.6325e-017
Spine  152.217 87.6247 -28.5129
Spine1  30.2767 44.0128 -14.1316
HEad  17.3003 12.9056 -14.7277
LeftShoulder1  1.24576 -3.79456 -9.75326
LeftArm  -35.3995 -45.8535 -16.1019
LeftForeArm  2.48224 -2.27029 3.48912
LeftHand  -0.0192368 7.99961 1.29791
RightShoulder  0.124053 -2.92154 15.4394
RightArm  -12.5467 14.7704 56.469
RightForeArm  178.108 59.4132 163.909
RightHand  -0.0670576 0.0176881 -1.4522
LeftUpLeg  86.3032 32.0823 -16.3418
LeftLeg  77.9625 1.20392 8.26851
LeftFoot  -29.9138 -0.26861 -2.74471
LeftToes  1.47335e-010 -1.29615e-010 3.08757e-011
255
root  -8.53281 24.1937 -0.892957 -159.86 -52.2388 24.2834
RightUpLeg  78.0991 70.5357 -31.7532
RightLeg  79.9415 3.1861 19.6943
RightFoot  -37.0188 -0.0621888 0.83854
RightToes  -1.16417e-010 0 -3.6325e-017
Spine  -177.174 87.6714 1.33318
Spine1  29.7812 43.7568 -14.6203
HEad  17.1361 9.07384 -14.8246
LeftShoulder1  1.28721 -4.39779 -8.85382
LeftArm  -36.6259 -46.6169 -14.4592
LeftForeArm  4.05258 -2.03507 3.70759
LeftHand  -0.0706823 9.92326 -0.458637
RightShoulder  0.0656671 -3.18958 16.0562
RightArm  -11.9053 15.449 56.5681
RightForeArm  177.605 59.9626 163.522
RightHand  -0.0647931 0.128023 -1.38602
LeftUpLeg  85.9995 31.8278 -16.509
LeftLeg  76.9403 1.17164 7.31554
LeftFoot  -28.954 -0.254518 -2.7672
LeftToes  1.47335e-010 -1.29615e-010 3.08757e-011
